# Listing Revival synthetic example house
# Units are illustrative; not architecturally accurate
mtllib example-house.mtl
o example_house
v -4.6 0 -1.8
v 4.6 0 -1.8
v 4.6 3 -1.8
v -4.6 3 -1.8
v -4.6 0 8.8
v 4.6 0 8.8
v 4.6 3 8.8
v -4.6 3 8.8
v -5 3 3
v 5 3 3
v 5 3 9
v -5 3 9
v -5 5 6
v 5 5 6
v -0.8 0 -1.86
v 0.8 0 -1.86
v 0.8 2.3 -1.86
v -0.8 2.3 -1.86
v -0.8 0 -1.7
v 0.8 0 -1.7
v 0.8 2.3 -1.7
v -0.8 2.3 -1.7
v -3.7 1 -1.87
v -1.8 1 -1.87
v -1.8 2.25 -1.87
v -3.7 2.25 -1.87
v -3.7 1 -1.69
v -1.8 1 -1.69
v -1.8 2.25 -1.69
v -3.7 2.25 -1.69
v 1.8 1 -1.87
v 3.7 1 -1.87
v 3.7 2.25 -1.87
v 1.8 2.25 -1.87
v 1.8 1 -1.69
v 3.7 1 -1.69
v 3.7 2.25 -1.69
v 1.8 2.25 -1.69
v -4.2 0 8.82
v 0.8 0 8.82
v 0.8 2.35 8.82
v -4.2 2.35 8.82
v -4.2 0 9.2
v 0.8 0 9.2
v 0.8 2.35 9.2
v -4.2 2.35 9.2
v -5 -0.25 -2.2
v 5 -0.25 -2.2
v 5 0 -2.2
v -5 0 -2.2
v -5 -0.25 9.3
v 5 -0.25 9.3
v 5 0 9.3
v -5 0 9.3
v -1.5 0 -3.5
v 1.5 0 -3.5
v 1.5 0.22 -3.5
v -1.5 0.22 -3.5
v -1.5 0 -1.9
v 1.5 0 -1.9
v 1.5 0.22 -1.9
v -1.5 0.22 -1.9
g house_body
usemtl Siding
f 1 2 3 4
f 5 8 7 6
f 1 5 6 2
f 2 6 7 3
f 3 7 8 4
f 5 1 4 8
g gable_roof
usemtl Roof
f 9 10 14 13
f 12 13 14 11
f 9 13 12
f 10 11 14
f 9 12 11 10
g front_door
usemtl Door
f 15 16 17 18
f 19 22 21 20
f 15 19 20 16
f 16 20 21 17
f 17 21 22 18
f 19 15 18 22
g window_left
usemtl Glass
f 23 24 25 26
f 27 30 29 28
f 23 27 28 24
f 24 28 29 25
f 25 29 30 26
f 27 23 26 30
g window_right
usemtl Glass
f 31 32 33 34
f 35 38 37 36
f 31 35 36 32
f 32 36 37 33
f 33 37 38 34
f 35 31 34 38
g garage
usemtl Garage
f 39 40 41 42
f 43 46 45 44
f 39 43 44 40
f 40 44 45 41
f 41 45 46 42
f 43 39 42 46
g foundation
usemtl Foundation
f 47 48 49 50
f 51 54 53 52
f 47 51 52 48
f 48 52 53 49
f 49 53 54 50
f 51 47 50 54
g porch
usemtl Wood
f 55 56 57 58
f 59 62 61 60
f 55 59 60 56
f 56 60 61 57
f 57 61 62 58
f 59 55 58 62
